<svg xmlns="http://www.w3.org/2000/svg" viewBox="0 0 255 40"><text y="40" font-size="40" font-weight="500" font-family="Mali, cursive" fill="#000">Empower</text>
<path xmlns="http://www.w3.org/2000/svg" d="m240.9607 14.9848c-1.4591-1.4676-3.439-2.2922-5.5036-2.2922s-4.0446.8246-5.5037 2.2922l-3.5354 3.5522-15.0975-15.14887c-4.5033-4.51751-11.7971-4.51751-16.3005 0l23.2043 23.33427-23.2243 23.3344c2.161 2.1728 5.093 3.3936 8.1502 3.3936 3.0573 0 5.9892-1.2208 8.1502-3.3936l26.2519-26.3225c2.2589-2.3616 5.4339-3.6106 8.6882-3.4179z" fill="#000"/>
<path xmlns="http://www.w3.org/2000/svg" d="m210.8178 26.7453-16.1267-16.1963c-2.161-2.17289-5.093-3.39373-8.15025-3.39373-3.05727 0-5.9892 1.22084-8.150225 3.39373l16.099975 16.1762-16.099975 16.1762c2.161025 2.1729 5.092955 3.3937 8.150225 3.3937 3.05725 0 5.98925-1.2208 8.15025-3.3937z" fill="#000"/>
</svg>